#!OML:ASF H:\IndianDance\Patient Classification 1\Patient 1\Session 1\dancer.ASF
:FULLY-SPECIFIED
:DEGREES
4659
root 6.77406 14.5742 -1.58688 -175.193 23.3241 177.816
lowerback 5.72299 1.06837 1.88011
upperback -7.31981 1.79018 -1.89866
thorax -10.9388 0.75019 -3.39406
lowerneck -7.27901 -14.1644 -12.023
upperneck 8.1201 -18.8373 10.4255
head 5.7512 -9.03336 3.45819
rclavicle 3.47997e-014 1.10325e-014
rhumerus 11.8353 8.74529 -22.7517
rradius 21.1912
rwrist 8.78788
rhand 9.99759 6.59655
rfingers 7.12502
rthumb 35.1241 -19.9304
lclavicle 3.47997e-014 1.10325e-014
lhumerus -5.4438 -7.16514 -6.5256
lradius 26.1088
lwrist -3.78448
lhand 14.9568 10.3011
lfingers 7.12502
lthumb 39.811 35.5839
rfemur -48.1683 -34.5691 28.7713
rtibia 60.3654
rfoot -17.532 -19.1878
rtoes 22.4196
lfemur -26.317 23.722 -29.0046
ltibia 53.7977
lfoot -28.8086 15.5411
ltoes 15.6433
4660
root 6.79 14.5862 -1.59404 -175.294 23.0705 177.761
lowerback 5.64063 1.03061 1.68021
upperback -7.29222 1.71809 -1.87635
thorax -10.8675 0.734589 -3.24266
lowerneck -7.33835 -14.1362 -11.9964
upperneck 8.45417 -18.8097 10.3441
head 5.85196 -9.01533 3.42062
rclavicle -2.65129e-014 9.24349e-015
rhumerus 11.692 8.31045 -22.9665
rradius 21.092
rwrist 9.10317
rhand 9.92342 6.61949
rfingers 7.12502
rthumb 35.0537 -19.924
lclavicle -2.65129e-014 9.24349e-015
lhumerus -5.52106 -7.09316 -6.42842
lradius 26.119
lwrist -3.7525
lhand 14.8771 10.2832
lfingers 7.12502
lthumb 39.736 35.5884
rfemur -47.8388 -34.6265 28.6178
rtibia 60.1506
rfoot -17.5785 -19.3973
rtoes 22.6547
lfemur -26.0113 23.6043 -28.9183
ltibia 53.5299
lfoot -28.6654 15.4389
ltoes 15.5136
4661
root 6.80755 14.5977 -1.60111 -175.4 22.7771 177.675
lowerback 5.53175 0.985098 1.43865
upperback -7.25887 1.63065 -1.86575
thorax -10.7748 0.714809 -3.07738
lowerneck -7.40007 -14.1059 -11.9705
upperneck 8.77099 -18.7798 10.2864
head 5.95023 -8.99466 3.39091
rclavicle -2.58793e-014 1.81888e-014
rhumerus 11.5228 7.95746 -23.1465
rradius 21.0158
rwrist 9.39319
rhand 9.85008 6.6585
rfingers 7.12502
rthumb 34.9841 -19.9013
lclavicle -2.58793e-014 1.81888e-014
lhumerus -5.57548 -7.05098 -6.3468
lradius 26.1498
lwrist -3.72355
lhand 14.7573 10.2478
lfingers 7.12502
lthumb 39.6231 35.5864
rfemur -47.5299 -34.7016 28.441
rtibia 59.9585
rfoot -17.648 -19.6264
rtoes 22.9333
lfemur -25.7075 23.4135 -28.8655
ltibia 53.2536
lfoot -28.5274 15.3779
ltoes 15.3779
4662
root 6.82616 14.6082 -1.60802 -175.502 22.4478 177.578
lowerback 5.39913 0.933856 1.1803
upperback -7.22095 1.53392 -1.86397
thorax -10.6627 0.691672 -2.91025
lowerneck -7.44644 -14.071 -11.9464
upperneck 9.05263 -18.7453 10.2549
head 6.03749 -8.97111 3.37205
rclavicle 4.89507e-014 1.78906e-015
rhumerus 11.3256 7.66258 -23.2982
rradius 20.9587
rwrist 9.68071
rhand 9.78517 6.72383
rfingers 7.12502
rthumb 34.9226 -19.8503
lclavicle 4.89507e-014 1.78906e-015
lhumerus -5.6012 -7.02339 -6.27825
lradius 26.1905
lwrist -3.7308
lhand 14.6109 10.1937
lfingers 7.12502
lthumb 39.4853 35.5729
rfemur -47.2378 -34.7833 28.2517
rtibia 59.7913
rfoot -17.7378 -19.8651
rtoes 23.21
lfemur -25.4146 23.1518 -28.8316
ltibia 52.9796
lfoot -28.3983 15.361
ltoes 15.2431
4663
root 6.8451 14.6177 -1.6146 -175.597 22.0911 177.479
lowerback 5.2521 0.879067 0.925462
upperback -7.17934 1.43331 -1.86914
thorax -10.5373 0.665933 -2.75193
lowerneck -7.48286 -14.0353 -11.9193
upperneck 9.30605 -18.7102 10.2363
head 6.11537 -8.94701 3.35835
rclavicle 2.83765e-014 1.2921e-014
rhumerus 11.1061 7.44213 -23.4121
rradius 20.9238
rwrist 9.92556
rhand 9.72998 6.80358
rfingers 7.12502
rthumb 34.8702 -19.7827
lclavicle 2.83765e-014 1.2921e-014
lhumerus -5.59857 -6.99961 -6.22045
lradius 26.2331
lwrist -3.7877
lhand 14.4572 10.1224
lfingers 7.12502
lthumb 39.3405 35.544
rfemur -46.9607 -34.8655 28.0572
rtibia 59.6486
rfoot -17.8354 -20.1076
rtoes 23.4584
lfemur -25.1358 22.8271 -28.806
ltibia 52.7165
lfoot -28.2863 15.3794
ltoes 15.1284
4664
root 6.86361 14.6261 -1.6207 -175.68 21.7169 177.393
lowerback 5.09714 0.822299 0.691812
upperback -7.13522 1.33304 -1.87694
thorax -10.4034 0.638239 -2.6086
lowerneck -7.51588 -13.9976 -11.8919
upperneck 9.54288 -18.6718 10.2206
head 6.18746 -8.92146 3.3467
rclavicle 5.12864e-014 2.28602e-014
rhumerus 10.8738 7.27048 -23.5012
rradius 20.9061
rwrist 10.1178
rhand 9.68395 6.89225
rfingers 7.12502
rthumb 34.8265 -19.7041
lclavicle 5.12864e-014 2.28602e-014
lhumerus -5.57646 -6.97348 -6.16953
lradius 26.275
lwrist -3.88859
lhand 14.3079 10.0422
lfingers 7.12502
lthumb 39.1998 35.5047
rfemur -46.7007 -34.9449 27.871
rtibia 59.529
rfoot -17.9281 -20.3496
rtoes 23.6732
lfemur -24.8743 22.4461 -28.7777
ltibia 52.4719
lfoot -28.1942 15.4305
ltoes 15.0354
4665
root 6.88094 14.6337 -1.62622 -175.747 21.3401 177.34
lowerback 4.94262 0.767108 0.507956
upperback -7.08992 1.24074 -1.88294
thorax -10.2669 0.610062 -2.4929
lowerneck -7.56174 -13.9596 -11.8622
upperneck 9.78489 -18.6306 10.192
head 6.2616 -8.8947 3.33036
rclavicle 7.30534e-015 7.95139e-016
rhumerus 10.6362 7.12049 -23.5774
rradius 20.9011
rwrist 10.2476
rhand 9.64053 6.97979
rfingers 7.12502
rthumb 34.7853 -19.6261
lclavicle 7.30534e-015 7.95139e-016
lhumerus -5.53972 -6.94029 -6.1231
lradius 26.3139
lwrist -4.01839
lhand 14.166 9.95791
lfingers 7.12502
lthumb 39.066 35.459
rfemur -46.4565 -35.0142 27.7145
rtibia 59.4283
rfoot -18.01 -20.5897
rtoes 23.858
lfemur -24.6316 22.0275 -28.7256
ltibia 52.2505
lfoot -28.1272 15.4999
ltoes 14.9836
4666
root 6.8965 14.6406 -1.63102 -175.795 20.9746 177.329
lowerback 4.79389 0.717035 0.388525
upperback -7.04541 1.16239 -1.88379
thorax -10.133 0.583328 -2.41041
lowerneck -7.60576 -13.9152 -11.8315
upperneck 10.0199 -18.5794 10.1547
head 6.33127 -8.86386 3.31306
rclavicle 2.30093e-014 1.70955e-014
rhumerus 10.4021 6.95803 -23.6556
rradius 20.9028
rwrist 10.3276
rhand 9.59079 7.06455
rfingers 7.12502
rthumb 34.7381 -19.5523
lclavicle 2.30093e-014 1.70955e-014
lhumerus -5.49825 -6.92004 -6.0843
lradius 26.3563
lwrist -4.13318
lhand 14.0359 9.87813
lfingers 7.12502
lthumb 38.9434 35.4143
rfemur -46.2316 -35.0703 27.6018
rtibia 59.3421
rfoot -18.0734 -20.8249
rtoes 24.0144
lfemur -24.4107 21.5881 -28.6404
ltibia 52.0556
lfoot -28.0831 15.5849
ltoes 14.9601
4667
root 6.90981 14.6469 -1.63501 -175.821 20.6341 177.364
lowerback 4.65414 0.676732 0.339563
upperback -7.00449 1.10455 -1.87819
thorax -10.0067 0.560968 -2.36403
lowerneck -7.6821 -13.8735 -11.7989
upperneck 10.2925 -18.5268 10.0814
head 6.4144 -8.83289 3.28175
rclavicle 6.03808e-015 -1.41137e-014
rhumerus 10.1731 6.75075 -23.7461
rradius 20.9095
rwrist 10.3881
rhand 9.52255 7.14055
rfingers 7.12502
rthumb 34.6734 -19.4912
lclavicle 6.03808e-015 -1.41137e-014
lhumerus -5.45163 -6.88701 -6.03798
lradius 26.3966
lwrist -4.24167
lhand 13.9183 9.80781
lfingers 7.12502
lthumb 38.8325 35.3756
rfemur -46.0276 -35.1042 27.5383
rtibia 59.2652
rfoot -18.1106 -21.0587
rtoes 24.1273
lfemur -24.2147 21.1435 -28.5216
ltibia 51.8879
lfoot -28.0653 15.6742
ltoes 14.9876
4668
root 6.92059 14.6527 -1.63824 -175.825 20.3311 177.445
lowerback 4.52168 0.647308 0.36286
upperback -6.96704 1.06846 -1.86501
thorax -9.88689 0.543674 -2.3535
lowerneck -7.75799 -13.8196 -11.7592
upperneck 10.5606 -18.4552 9.98981
head 6.49165 -8.79407 3.24681
rclavicle 8.97016e-015 1.45113e-014
rhumerus 9.96002 6.4937 -23.8548
rradius 20.9213
rwrist 10.4473
rhand 9.42198 7.20435
rfingers 7.12502
rthumb 34.5779 -19.4492
lclavicle 8.97016e-015 1.45113e-014
lhumerus -5.40786 -6.83195 -5.98308
lradius 26.4341
lwrist -4.33926
lhand 13.8107 9.74864
lfingers 7.12502
lthumb 38.731 35.3452
rfemur -45.8409 -35.1064 27.5249
rtibia 59.1929
rfoot -18.1302 -21.2833
rtoes 24.2213
lfemur -24.0453 20.7121 -28.3699
ltibia 51.7465
lfoot -28.0683 15.7696
ltoes 15.043
4669
root 6.92876 14.6581 -1.64072 -175.813 20.0748 177.557
lowerback 4.39638 0.631857 0.443087
upperback -6.93388 1.0565 -1.84603
thorax -9.7746 0.533911 -2.37232
lowerneck -7.8366 -13.7562 -11.7161
upperneck 10.8325 -18.3673 9.87499
head 6.5664 -8.74895 3.20643
rclavicle 1.99282e-014 2.5842e-015
rhumerus 9.76444 6.17749 -23.9821
rradius 20.9389
rwrist 10.5407
rhand 9.28166 7.26095
rfingers 7.12502
rthumb 34.4447 -19.423
lclavicle 1.99282e-014 2.5842e-015
lhumerus -5.3723 -6.75939 -5.9148
lradius 26.4729
lwrist -4.4211
lhand 13.7007 9.70431
lfingers 7.12502
lthumb 38.6273 35.3301
rfemur -45.6711 -35.0719 27.5468
rtibia 59.1215
rfoot -18.1268 -21.4988
rtoes 24.2768
lfemur -23.9016 20.3077 -28.2004
ltibia 51.6269
lfoot -28.0917 15.8646
ltoes 15.1484
4670
root 6.93444 14.663 -1.64247 -175.789 19.8717 177.689
lowerback 4.27711 0.633019 0.564502
upperback -6.90403 1.07043 -1.82358
thorax -9.66814 0.533777 -2.41411
lowerneck -7.91226 -13.6818 -11.6644
upperneck 11.0964 -18.2616 9.73796
head 6.63348 -8.69708 3.16105
rclavicle -1.11071e-014 -1.15295e-014
rhumerus 9.58514 5.81284 -24.1217
rradius 20.9665
rwrist 10.6768
rhand 9.08689 7.31559
rfingers 7.12502
rthumb 34.2598 -19.4101
lclavicle -1.11071e-014 -1.15295e-014
lhumerus -5.34473 -6.6625 -5.82866
lradius 26.513
lwrist -4.49618
lhand 13.5763 9.66156
lfingers 7.12502
lthumb 38.5099 35.3202
rfemur -45.5141 -34.9966 27.5909
rtibia 59.0478
rfoot -18.1039 -21.6998
rtoes 24.2988
lfemur -23.7818 19.9456 -28.0262
ltibia 51.5238
lfoot -28.1272 15.9635
ltoes 15.275
4671
root 6.93803 14.6679 -1.64355 -175.761 19.7239 177.824
lowerback 4.16081 0.654898 0.700032
upperback -6.87349 1.11312 -1.79659
thorax -9.56133 0.546803 -2.46253
lowerneck -7.97511 -13.5993 -11.6119
upperneck 11.3379 -18.1419 9.58679
head 6.68861 -8.64078 3.11458
rclavicle -2.61153e-014 3.37934e-015
rhumerus 9.4182 5.42422 -24.2513
rradius 21.0115
rwrist 10.8363
rhand 8.83477 7.36886
rfingers 7.12502
rthumb 34.0203 -19.4104
lclavicle -2.61153e-014 3.37934e-015
lhumerus -5.32518 -6.54174 -5.71392
lradius 26.5609
lwrist -4.56352
lhand 13.4397 9.62343
lfingers 7.12502
lthumb 38.381 35.318
rfemur -45.3638 -34.8805 27.6383
rtibia 58.9688
rfoot -18.0661 -21.8844
rtoes 24.2938
lfemur -23.6786 19.636 -27.8615
ltibia 51.4292
lfoot -28.1687 16.0629
ltoes 15.423
4672
root 6.94009 14.6728 -1.64392 -175.736 19.6288 177.949
lowerback 4.05076 0.694046 0.829772
upperback -6.84125 1.17794 -1.76701
thorax -9.45545 0.571153 -2.50757
lowerneck -8.0228 -13.5035 -11.5502
upperneck 11.5482 -18.0023 9.42432
head 6.72745 -8.57692 3.06788
rclavicle 2.94201e-014 6.36111e-015
rhumerus 9.2685 4.99455 -24.3867
rradius 21.0677
rwrist 11.0303
rhand 8.52708 7.43751
rfingers 7.12502
rthumb 33.728 -19.4062
lclavicle 2.94201e-014 6.36111e-015
lhumerus -5.31974 -6.39686 -5.57507
lradius 26.6224
lwrist -4.62802
lhand 13.2872 9.58926
lfingers 7.12502
lthumb 38.237 35.3236
rfemur -45.2149 -34.7262 27.6775
rtibia 58.8817
rfoot -18.0182 -22.0552
rtoes 24.2697
lfemur -23.5851 19.3831 -27.7147
ltibia 51.3357
lfoot -28.2089 16.162
ltoes 15.5816
